<svg xmlns="http://www.w3.org/2000/svg" width="1614" height="512" viewBox="0 0 1614 512">
  <defs>
    <style>
      .cls-1, .cls-11 {
        fill: #1253d8;
      }

      .cls-1, .cls-10, .cls-2, .cls-3, .cls-4, .cls-5, .cls-6, .cls-7, .cls-8, .cls-9 {
        fill-rule: evenodd;
      }

      .cls-2 {
        fill: #113c91;
      }

      .cls-3 {
        fill: #0f234a;
      }

      .cls-4 {
        fill: #1248b5;
      }

      .cls-5 {
        fill: #1254d8;
      }

      .cls-6 {
        fill: #3e495c;
      }

      .cls-7 {
        fill: #102e6d;
      }

      .cls-8 {
        fill: #1141a3;
      }

      .cls-9 {
        fill: #1f273a;
      }

      .cls-10, .cls-12 {
        fill: #fff;
      }

      .cls-11 {
        font-size: 89px;
        font-family: Poppins;
        font-weight: 600;
      }
    </style>
  </defs>
  <path class="cls-1" d="M147.124,51.865l81.138,21.741a11,11,0,0,1,7.778,13.472L214.3,168.216a11,11,0,0,1-13.472,7.778l-81.138-21.741a11,11,0,0,1-7.778-13.472l21.741-81.138A11,11,0,0,1,147.124,51.865Z"/>
  <path id="Rectangle_1_copy" data-name="Rectangle 1 copy" class="cls-2" d="M259.172,81.888l81.137,21.741a11,11,0,0,1,7.779,13.472l-21.741,81.138a11,11,0,0,1-13.473,7.778l-81.137-21.741a11,11,0,0,1-7.779-13.472L245.7,89.666A11,11,0,0,1,259.172,81.888Z"/>
  <path id="Rectangle_1_copy_2" data-name="Rectangle 1 copy 2" class="cls-3" d="M371.478,110.945l81.137,21.741a11,11,0,0,1,7.779,13.472L438.653,227.3a11,11,0,0,1-13.472,7.778l-81.138-21.741a11,11,0,0,1-7.778-13.472l21.741-81.138A11,11,0,0,1,371.478,110.945Z"/>
  <path id="Rectangle_1_copy_3" data-name="Rectangle 1 copy 3" class="cls-4" d="M117.1,163.913l81.138,21.74a11,11,0,0,1,7.778,13.473l-21.741,81.137a11,11,0,0,1-13.472,7.778L89.666,266.3a11,11,0,0,1-7.778-13.473l21.741-81.137A11,11,0,0,1,117.1,163.913Z"/>
  <path id="Rectangle_1_copy_3-2" data-name="Rectangle 1 copy 3" class="cls-5" d="M229.148,193.936l81.138,21.74a11,11,0,0,1,7.778,13.473l-21.74,81.137a11,11,0,0,1-13.473,7.778l-81.137-21.74a11,11,0,0,1-7.778-13.473l21.74-81.137A11,11,0,0,1,229.148,193.936Z"/>
  <path id="Rectangle_1_copy_3-3" data-name="Rectangle 1 copy 3" class="cls-6" d="M341.455,222.993l81.138,21.74a11,11,0,0,1,7.778,13.473L408.63,339.343a11,11,0,0,1-13.472,7.779L314.02,325.381a11,11,0,0,1-7.778-13.472l21.741-81.138A11,11,0,0,1,341.455,222.993Z"/>
  <path id="Rectangle_1_copy_4" data-name="Rectangle 1 copy 4" class="cls-7" d="M86.819,276.926l81.138,21.741a11,11,0,0,1,7.778,13.472l-21.741,81.138a11,11,0,0,1-13.472,7.778L59.385,379.314a11,11,0,0,1-7.778-13.472L73.347,284.7A11,11,0,0,1,86.819,276.926Z"/>
  <path id="Rectangle_1_copy_4-2" data-name="Rectangle 1 copy 4" class="cls-8" d="M198.867,306.949L280,328.69a11,11,0,0,1,7.779,13.472L266.042,423.3a11,11,0,0,1-13.472,7.778l-81.138-21.741a11,11,0,0,1-7.778-13.472L185.4,314.727A11,11,0,0,1,198.867,306.949Z"/>
  <path id="Rectangle_1_copy_4-3" data-name="Rectangle 1 copy 4" class="cls-9" d="M311.173,336.006l81.138,21.741a11,11,0,0,1,7.778,13.472l-21.741,81.138a11,11,0,0,1-13.472,7.778l-81.138-21.741a11,11,0,0,1-7.778-13.472L297.7,343.784A11,11,0,0,1,311.173,336.006Z"/>
  <path class="cls-10" d="M201.785,339.138h74.778V321.463H295.6a15.273,15.273,0,0,0,13.6-9.517V279.315h20.394a9.132,9.132,0,0,0,5.438-4.078c1.713-3.172.433-6.854,0-8.158-2.042-6.151-9.915-32.541-14.955-48.945a60.555,60.555,0,0,0-5.439-12.237c-13.789-23.564-39.727-32.7-58.462-33.99-20.6-1.418-47.291,5.482-65.261,28.552A73.833,73.833,0,0,0,175.952,256.2c2.149,14.533,9.288,28.835,20.394,40.788,1.322,1.423,2.667,2.768,4.079,4.079Q201.1,320.1,201.785,339.138Z"/>
  <text id="MedStudium" class="cls-11" transform="translate(513.237 327.417) scale(1.736)">Med<tspan class="cls-12">Studium</tspan></text>
</svg>
